<svg width="1558" height="1558" viewBox="0 0 1558 1558" fill="none" xmlns="http://www.w3.org/2000/svg">
<mask id="path-1-inside-1_1246_7546" fill="white">
<path d="M395.261 816.045C395.261 853.564 306.779 883.98 197.631 883.98C88.4826 883.98 0 853.564 0 816.045L0 741.933H395.261V816.045Z"/>
</mask>
<path d="M395.261 816.045C395.261 853.564 306.779 883.98 197.631 883.98C88.4826 883.98 0 853.564 0 816.045L0 741.933H395.261V816.045Z" fill="url(#paint0_linear_1246_7546)"/>
<path d="M197.631 883.98L197.631 885.98V885.98L197.631 883.98ZM0 741.933L0 739.933H-2V741.933H0ZM395.261 741.933H397.261V739.933H395.261V741.933ZM395.261 816.045H393.261C393.261 824.575 388.235 832.999 378.469 840.936C368.718 848.86 354.488 856.085 336.726 862.191C301.222 874.395 252.044 881.98 197.631 881.98V883.98L197.631 885.98C252.365 885.98 302.003 878.357 338.026 865.974C356.029 859.785 370.74 852.371 380.991 844.04C391.226 835.722 397.261 826.274 397.261 816.045H395.261ZM197.631 883.98V881.98C143.217 881.98 94.0393 874.395 58.535 862.191C40.7732 856.085 26.5425 848.86 16.7922 840.936C7.02583 832.999 2 824.575 2 816.045H0H-2C-2 826.274 4.0345 835.722 14.2695 844.04C24.5205 852.371 39.2323 859.785 57.2347 865.974C93.2588 878.357 142.896 885.98 197.631 885.98L197.631 883.98ZM0 816.045H2L2 741.933H0H-2L-2 816.045H0ZM0 741.933L0 743.933H395.261V741.933V739.933H0L0 741.933ZM395.261 741.933H393.261V816.045H395.261H397.261V741.933H395.261Z" fill="#474747" mask="url(#path-1-inside-1_1246_7546)"/>
<path d="M197.632 674.997C252.125 674.997 301.418 682.592 337.052 694.841C354.874 700.967 369.225 708.239 379.101 716.265C388.984 724.297 394.262 732.977 394.262 741.933C394.262 750.888 388.984 759.567 379.101 767.6C369.225 775.626 354.874 782.898 337.052 789.025C301.418 801.274 252.125 808.868 197.632 808.868C143.138 808.868 93.845 801.274 58.2109 789.025C40.389 782.898 26.0376 775.626 16.1621 767.6C6.27891 759.567 1.00101 750.888 1.00098 741.933C1.00098 732.977 6.27862 724.297 16.1621 716.265C26.0376 708.239 40.389 700.967 58.2109 694.841C93.845 682.592 143.138 674.997 197.632 674.997Z" fill="black" stroke="#474747" stroke-width="2"/>
<mask id="path-4-inside-2_1246_7546" fill="white">
<path d="M465.198 1002.94C483.958 1035.44 422.539 1106.02 328.014 1160.59C233.489 1215.17 141.652 1233.07 122.893 1200.57L85.8369 1136.39L428.143 938.762L465.198 1002.94Z"/>
</mask>
<path d="M465.198 1002.94C483.958 1035.44 422.539 1106.02 328.014 1160.59C233.489 1215.17 141.652 1233.07 122.893 1200.57L85.8369 1136.39L428.143 938.762L465.198 1002.94Z" fill="url(#paint1_linear_1246_7546)"/>
<path d="M328.014 1160.59L329.014 1162.32V1162.32L328.014 1160.59ZM85.8369 1136.39L84.8369 1134.66L83.1049 1135.66L84.1049 1137.39L85.8369 1136.39ZM428.143 938.762L429.875 937.762L428.875 936.03L427.143 937.03L428.143 938.762ZM465.198 1002.94L463.466 1003.94C467.732 1011.33 467.591 1021.14 463.102 1032.9C458.62 1044.63 449.908 1058.01 437.579 1072.17C412.934 1100.5 374.137 1131.65 327.014 1158.86L328.014 1160.59L329.014 1162.32C376.415 1134.96 415.591 1103.54 440.597 1074.8C453.093 1060.44 462.127 1046.66 466.839 1034.32C471.543 1022 472.045 1010.8 466.93 1001.94L465.198 1002.94ZM328.014 1160.59L327.014 1158.86C279.89 1186.07 233.508 1204.09 196.659 1211.27C178.224 1214.86 162.287 1215.72 149.881 1213.73C137.454 1211.74 128.89 1206.96 124.625 1199.57L122.893 1200.57L121.161 1201.57C126.275 1210.43 136.225 1215.6 149.248 1217.68C162.291 1219.77 178.739 1218.84 197.424 1215.2C234.813 1207.91 281.612 1189.69 329.014 1162.32L328.014 1160.59ZM122.893 1200.57L124.625 1199.57L87.569 1135.39L85.8369 1136.39L84.1049 1137.39L121.161 1201.57L122.893 1200.57ZM85.8369 1136.39L86.8369 1138.12L429.143 940.494L428.143 938.762L427.143 937.03L84.8369 1134.66L85.8369 1136.39ZM428.143 938.762L426.411 939.762L463.466 1003.94L465.198 1002.94L466.93 1001.94L429.875 937.762L428.143 938.762Z" fill="#474747" mask="url(#path-4-inside-2_1246_7546)"/>
<path d="M223.524 979.607C270.717 952.361 317.203 934.292 354.188 927.083C372.685 923.477 388.749 922.599 401.315 924.612C413.89 926.626 422.801 931.505 427.279 939.26C431.756 947.016 431.525 957.171 426.982 969.069C422.443 980.958 413.65 994.432 401.279 1008.65C376.544 1037.07 337.653 1068.3 290.46 1095.54C243.267 1122.79 196.781 1140.86 159.796 1148.07C141.299 1151.67 125.234 1152.55 112.668 1150.54C100.093 1148.52 91.1825 1143.65 86.7049 1135.89C82.2272 1128.14 82.4577 1117.98 87.0008 1106.08C91.5403 1094.19 100.333 1080.72 112.704 1066.5C137.44 1038.08 176.331 1006.85 223.524 979.607Z" fill="black" stroke="#474747" stroke-width="2"/>
<mask id="path-7-inside-3_1246_7546" fill="white">
<path d="M619.216 1129.83C651.709 1148.59 633.809 1240.43 579.235 1334.95C524.661 1429.48 454.079 1490.9 421.586 1472.14L357.403 1435.08L555.034 1092.78L619.216 1129.83Z"/>
</mask>
<path d="M619.216 1129.83C651.709 1148.59 633.809 1240.43 579.235 1334.95C524.661 1429.48 454.079 1490.9 421.586 1472.14L357.403 1435.08L555.034 1092.78L619.216 1129.83Z" fill="url(#paint2_linear_1246_7546)"/>
<path d="M619.216 1129.83L618.216 1131.57L619.216 1129.83ZM579.235 1334.95L580.967 1335.95V1335.95L579.235 1334.95ZM357.403 1435.08L355.671 1434.08L354.671 1435.82L356.403 1436.82L357.403 1435.08ZM555.034 1092.78L556.034 1091.05L554.302 1090.05L553.302 1091.78L555.034 1092.78ZM619.216 1129.83L618.216 1131.57C625.604 1135.83 630.386 1144.4 632.377 1156.82C634.364 1169.23 633.506 1185.16 629.913 1203.6C622.73 1240.45 604.71 1286.83 577.503 1333.95L579.235 1334.95L580.967 1335.95C608.334 1288.55 626.551 1241.75 633.839 1204.36C637.481 1185.68 638.416 1169.23 636.326 1156.19C634.24 1143.17 629.075 1133.22 620.216 1128.1L619.216 1129.83ZM579.235 1334.95L577.503 1333.95C550.296 1381.08 519.139 1419.87 490.817 1444.52C476.648 1456.85 463.276 1465.56 451.538 1470.04C439.781 1474.53 429.974 1474.67 422.586 1470.41L421.586 1472.14L420.586 1473.87C429.444 1478.99 440.644 1478.48 452.965 1473.78C465.306 1469.07 479.082 1460.03 493.443 1447.54C522.179 1422.53 553.6 1383.36 580.967 1335.95L579.235 1334.95ZM421.586 1472.14L422.586 1470.41L358.403 1433.35L357.403 1435.08L356.403 1436.82L420.586 1473.87L421.586 1472.14ZM357.403 1435.08L359.135 1436.08L556.766 1093.78L555.034 1092.78L553.302 1091.78L355.671 1434.08L357.403 1435.08ZM555.034 1092.78L554.034 1094.51L618.216 1131.57L619.216 1129.83L620.216 1128.1L556.034 1091.05L555.034 1092.78Z" fill="#474747" mask="url(#path-7-inside-3_1246_7546)"/>
<path d="M398.252 1230.46C425.499 1183.27 456.722 1144.38 485.147 1119.64C499.363 1107.27 512.837 1098.48 524.725 1093.94C536.623 1089.4 546.779 1089.17 554.535 1093.64C562.29 1098.12 567.168 1107.03 569.182 1119.61C571.195 1132.17 570.318 1148.24 566.712 1166.73C559.503 1203.72 541.434 1250.2 514.188 1297.4C486.941 1344.59 455.717 1383.48 427.292 1408.22C413.075 1420.59 399.601 1429.38 387.713 1433.92C375.815 1438.46 365.66 1438.69 357.904 1434.22C350.149 1429.74 345.27 1420.83 343.256 1408.25C341.243 1395.69 342.121 1379.62 345.727 1361.13C352.935 1324.14 371.005 1277.65 398.252 1230.46Z" fill="black" stroke="#474747" stroke-width="2"/>
<mask id="path-10-inside-4_1246_7546" fill="white">
<path d="M816.045 1162.72L816.484 1162.72C853.802 1163.41 883.98 1251.62 883.98 1360.35C883.98 1469.07 853.802 1557.28 816.484 1557.97L816.045 1557.98L816.045 1557.98L741.934 1557.98L741.934 1162.72L816.045 1162.72Z"/>
</mask>
<path d="M816.045 1162.72L816.484 1162.72C853.802 1163.41 883.98 1251.62 883.98 1360.35C883.98 1469.07 853.802 1557.28 816.484 1557.97L816.045 1557.98L816.045 1557.98L741.934 1557.98L741.934 1162.72L816.045 1162.72Z" fill="url(#paint3_linear_1246_7546)"/>
<path d="M816.045 1162.72L816.063 1160.72L816.054 1160.72L816.045 1160.72L816.045 1162.72ZM816.484 1162.72L816.521 1160.72L816.512 1160.72L816.502 1160.72L816.484 1162.72ZM883.98 1360.35L885.98 1360.35V1360.35L883.98 1360.35ZM816.484 1557.97L816.502 1559.97L816.512 1559.97L816.521 1559.97L816.484 1557.97ZM816.045 1557.98L816.027 1555.98L814.045 1555.99L814.045 1557.98L816.045 1557.98ZM816.045 1557.98L816.045 1559.98L818.045 1559.98L818.045 1557.98L816.045 1557.98ZM741.934 1557.98L739.934 1557.98L739.934 1559.98L741.934 1559.98L741.934 1557.98ZM741.934 1162.72L741.934 1160.72L739.934 1160.72L739.934 1162.72L741.934 1162.72ZM816.045 1162.72L816.027 1164.72L816.467 1164.72L816.484 1162.72L816.502 1160.72L816.063 1160.72L816.045 1162.72ZM816.484 1162.72L816.448 1164.72C824.938 1164.88 833.321 1170.02 841.214 1179.85C849.092 1189.67 856.27 1203.92 862.334 1221.67C874.455 1257.14 881.98 1306.15 881.98 1360.35L883.98 1360.35L885.98 1360.35C885.98 1305.83 878.417 1256.36 866.119 1220.37C859.973 1202.39 852.61 1187.66 844.334 1177.35C836.073 1167.05 826.69 1160.91 816.521 1160.72L816.484 1162.72ZM883.98 1360.35L881.98 1360.35C881.98 1414.55 874.455 1463.55 862.334 1499.03C856.27 1516.77 849.092 1531.02 841.214 1540.84C833.321 1550.68 824.938 1555.82 816.448 1555.97L816.484 1557.97L816.521 1559.97C826.69 1559.78 836.073 1553.64 844.334 1543.34C852.61 1533.03 859.973 1518.3 866.119 1500.32C878.417 1464.33 885.98 1414.87 885.98 1360.35L883.98 1360.35ZM816.484 1557.97L816.467 1555.97L816.027 1555.98L816.045 1557.98L816.063 1559.98L816.502 1559.97L816.484 1557.97ZM816.045 1557.98L814.045 1557.98L814.045 1557.98L816.045 1557.98L818.045 1557.98L818.045 1557.98L816.045 1557.98ZM816.045 1557.98L816.045 1555.98L741.934 1555.98L741.934 1557.98L741.934 1559.98L816.045 1559.98L816.045 1557.98ZM741.934 1557.98L743.934 1557.98L743.934 1162.72L741.934 1162.72L739.934 1162.72L739.934 1557.98L741.934 1557.98ZM741.934 1162.72L741.934 1164.72L816.045 1164.72L816.045 1162.72L816.045 1160.72L741.934 1160.72L741.934 1162.72Z" fill="#474747" mask="url(#path-10-inside-4_1246_7546)"/>
<path d="M674.997 1360.34C674.997 1305.85 682.592 1256.56 694.841 1220.93C700.967 1203.1 708.239 1188.75 716.265 1178.88C724.297 1168.99 732.977 1163.72 741.933 1163.72C750.888 1163.72 759.567 1168.99 767.6 1178.88C775.626 1188.75 782.898 1203.1 789.024 1220.93C801.274 1256.56 808.868 1305.85 808.868 1360.34C808.868 1414.84 801.274 1464.13 789.024 1499.77C782.898 1517.59 775.626 1531.94 767.6 1541.81C759.567 1551.7 750.888 1556.98 741.933 1556.98C732.977 1556.98 724.297 1551.7 716.265 1541.81C708.239 1531.94 700.967 1517.59 694.841 1499.77C682.592 1464.13 674.997 1414.84 674.997 1360.34Z" fill="black" stroke="#474747" stroke-width="2"/>
<mask id="path-13-inside-5_1246_7546" fill="white">
<path d="M1002.95 1092.78C1035.44 1074.02 1106.02 1135.44 1160.59 1229.96C1215.17 1324.49 1233.07 1416.32 1200.58 1435.08L1136.39 1472.14L938.763 1129.83L1002.95 1092.78Z"/>
</mask>
<path d="M1002.95 1092.78C1035.44 1074.02 1106.02 1135.44 1160.59 1229.96C1215.17 1324.49 1233.07 1416.32 1200.58 1435.08L1136.39 1472.14L938.763 1129.83L1002.95 1092.78Z" fill="url(#paint4_linear_1246_7546)"/>
<path d="M1160.59 1229.96L1162.33 1228.96V1228.96L1160.59 1229.96ZM1136.39 1472.14L1134.66 1473.14L1135.66 1474.87L1137.39 1473.87L1136.39 1472.14ZM938.763 1129.83L937.763 1128.1L936.031 1129.1L937.031 1130.83L938.763 1129.83ZM1002.95 1092.78L1003.95 1094.51C1011.33 1090.25 1021.14 1090.39 1032.9 1094.88C1044.64 1099.36 1058.01 1108.07 1072.18 1120.4C1100.5 1145.04 1131.66 1183.84 1158.86 1230.96L1160.59 1229.96L1162.33 1228.96C1134.96 1181.56 1103.54 1142.39 1074.8 1117.38C1060.44 1104.88 1046.67 1095.85 1034.33 1091.14C1022 1086.43 1010.8 1085.93 1001.95 1091.05L1002.95 1092.78ZM1160.59 1229.96L1158.86 1230.96C1186.07 1278.09 1204.09 1324.47 1211.27 1361.32C1214.87 1379.75 1215.72 1395.69 1213.74 1408.1C1211.75 1420.52 1206.96 1429.09 1199.58 1433.35L1200.58 1435.08L1201.58 1436.82C1210.43 1431.7 1215.6 1421.75 1217.69 1408.73C1219.78 1395.69 1218.84 1379.24 1215.2 1360.55C1207.91 1323.16 1189.69 1276.37 1162.33 1228.96L1160.59 1229.96ZM1200.58 1435.08L1199.58 1433.35L1135.39 1470.41L1136.39 1472.14L1137.39 1473.87L1201.58 1436.82L1200.58 1435.08ZM1136.39 1472.14L1138.13 1471.14L940.495 1128.83L938.763 1129.83L937.031 1130.83L1134.66 1473.14L1136.39 1472.14ZM938.763 1129.83L939.763 1131.57L1003.95 1094.51L1002.95 1092.78L1001.95 1091.05L937.763 1128.1L938.763 1129.83Z" fill="#474747" mask="url(#path-13-inside-5_1246_7546)"/>
<path d="M979.609 1334.45C952.362 1287.26 934.293 1240.78 927.084 1203.79C923.479 1185.29 922.601 1169.23 924.614 1156.66C926.628 1144.09 931.507 1135.18 939.262 1130.7C947.018 1126.22 957.173 1126.45 969.071 1131C980.959 1135.54 994.433 1144.33 1008.65 1156.7C1037.07 1181.43 1068.3 1220.33 1095.54 1267.52C1122.79 1314.71 1140.86 1361.2 1148.07 1398.18C1151.68 1416.68 1152.55 1432.74 1150.54 1445.31C1148.53 1457.89 1143.65 1466.8 1135.89 1471.27C1128.14 1475.75 1117.98 1475.52 1106.08 1470.98C1094.19 1466.44 1080.72 1457.65 1066.5 1445.27C1038.08 1420.54 1006.86 1381.65 979.609 1334.45Z" fill="black" stroke="#474747" stroke-width="2"/>
<mask id="path-16-inside-6_1246_7546" fill="white">
<path d="M1129.84 938.761C1148.6 906.268 1240.43 924.168 1334.96 978.742C1429.48 1033.32 1490.9 1103.9 1472.14 1136.39L1435.09 1200.57L1092.78 1002.94L1129.84 938.761Z"/>
</mask>
<path d="M1129.84 938.761C1148.6 906.268 1240.43 924.168 1334.96 978.742C1429.48 1033.32 1490.9 1103.9 1472.14 1136.39L1435.09 1200.57L1092.78 1002.94L1129.84 938.761Z" fill="url(#paint5_linear_1246_7546)"/>
<path d="M1129.84 938.761L1131.57 939.761L1129.84 938.761ZM1334.96 978.742L1335.96 977.01V977.01L1334.96 978.742ZM1435.09 1200.57L1434.09 1202.31L1435.82 1203.31L1436.82 1201.57L1435.09 1200.57ZM1092.78 1002.94L1091.05 1001.94L1090.05 1003.68L1091.78 1004.68L1092.78 1002.94ZM1129.84 938.761L1131.57 939.761C1135.83 932.373 1144.4 927.591 1156.82 925.601C1169.23 923.613 1185.17 924.471 1203.6 928.065C1240.45 935.247 1286.83 953.267 1333.96 980.474L1334.96 978.742L1335.96 977.01C1288.56 949.643 1241.76 931.426 1204.37 924.138C1185.68 920.497 1169.24 919.561 1156.19 921.651C1143.17 923.737 1133.22 928.903 1128.1 937.761L1129.84 938.761ZM1334.96 978.742L1333.96 980.474C1381.08 1007.68 1419.88 1038.84 1444.52 1067.16C1456.85 1081.33 1465.56 1094.7 1470.05 1106.44C1474.54 1118.2 1474.68 1128 1470.41 1135.39L1472.14 1136.39L1473.87 1137.39C1478.99 1128.53 1478.49 1117.33 1473.78 1105.01C1469.07 1092.67 1460.04 1078.89 1447.54 1064.53C1422.53 1035.8 1383.36 1004.38 1335.96 977.01L1334.96 978.742ZM1472.14 1136.39L1470.41 1135.39L1433.35 1199.57L1435.09 1200.57L1436.82 1201.57L1473.87 1137.39L1472.14 1136.39ZM1435.09 1200.57L1436.09 1198.84L1093.78 1001.21L1092.78 1002.94L1091.78 1004.68L1434.09 1202.31L1435.09 1200.57ZM1092.78 1002.94L1094.51 1003.94L1131.57 939.761L1129.84 938.761L1128.1 937.761L1091.05 1001.94L1092.78 1002.94Z" fill="#474747" mask="url(#path-16-inside-6_1246_7546)"/>
<path d="M1230.46 1159.73C1183.27 1132.48 1144.38 1101.26 1119.64 1072.83C1107.27 1058.61 1098.48 1045.14 1093.94 1033.25C1089.4 1021.35 1089.17 1011.2 1093.64 1003.44C1098.12 995.688 1107.03 990.81 1119.61 988.795C1132.17 986.782 1148.24 987.66 1166.74 991.265C1203.72 998.474 1250.21 1016.54 1297.4 1043.79C1344.59 1071.04 1383.48 1102.26 1408.22 1130.69C1420.59 1144.9 1429.38 1158.38 1433.92 1170.26C1438.46 1182.16 1438.7 1192.32 1434.22 1200.07C1429.74 1207.83 1420.83 1212.71 1408.25 1214.72C1395.69 1216.73 1379.62 1215.86 1361.13 1212.25C1324.14 1205.04 1277.66 1186.97 1230.46 1159.73Z" fill="black" stroke="#474747" stroke-width="2"/>
<mask id="path-19-inside-7_1246_7546" fill="white">
<path d="M1162.72 741.933C1162.72 704.413 1251.2 673.997 1360.35 673.997C1469.49 673.997 1557.98 704.413 1557.98 741.933V816.044H1162.72V741.933Z"/>
</mask>
<path d="M1162.72 741.933C1162.72 704.413 1251.2 673.997 1360.35 673.997C1469.49 673.997 1557.98 704.413 1557.98 741.933V816.044H1162.72V741.933Z" fill="url(#paint6_linear_1246_7546)"/>
<path d="M1360.35 673.997V671.997V671.997V673.997ZM1557.98 816.044V818.044H1559.98V816.044H1557.98ZM1162.72 816.044H1160.72V818.044H1162.72V816.044ZM1162.72 741.933H1164.72C1164.72 733.402 1169.74 724.979 1179.51 717.041C1189.26 709.117 1203.49 701.892 1221.25 695.787C1256.76 683.582 1305.93 675.997 1360.35 675.997V673.997V671.997C1305.61 671.997 1255.97 679.621 1219.95 692.004C1201.95 698.192 1187.24 705.606 1176.99 713.937C1166.75 722.255 1160.72 731.704 1160.72 741.933H1162.72ZM1360.35 673.997V675.997C1414.76 675.997 1463.94 683.582 1499.44 695.787C1517.2 701.892 1531.43 709.117 1541.19 717.041C1550.95 724.979 1555.98 733.402 1555.98 741.933H1557.98H1559.98C1559.98 731.704 1553.94 722.255 1543.71 713.937C1533.46 705.606 1518.75 698.192 1500.74 692.004C1464.72 679.621 1415.08 671.997 1360.35 671.997V673.997ZM1557.98 741.933H1555.98V816.044H1557.98H1559.98V741.933H1557.98ZM1557.98 816.044V814.044H1162.72V816.044V818.044H1557.98V816.044ZM1162.72 816.044H1164.72V741.933H1162.72H1160.72V816.044H1162.72Z" fill="#474747" mask="url(#path-19-inside-7_1246_7546)"/>
<path d="M1360.34 882.98C1305.85 882.98 1256.56 875.386 1220.92 863.136C1203.1 857.01 1188.75 849.739 1178.88 841.713C1168.99 833.68 1163.71 825 1163.71 816.045C1163.71 807.089 1168.99 798.41 1178.88 790.378C1188.75 782.352 1203.1 775.079 1220.92 768.953C1256.56 756.704 1305.85 749.109 1360.34 749.109C1414.84 749.109 1464.13 756.704 1499.77 768.953C1517.59 775.079 1531.94 782.352 1541.81 790.378C1551.7 798.41 1556.98 807.089 1556.98 816.045C1556.98 825 1551.7 833.68 1541.81 841.713C1531.94 849.739 1517.59 857.01 1499.77 863.136C1464.13 875.386 1414.84 882.98 1360.34 882.98Z" fill="black" stroke="#474747" stroke-width="2"/>
<mask id="path-22-inside-8_1246_7546" fill="white">
<path d="M1092.78 555.033L1092.56 554.651C1074.5 521.989 1135.81 451.745 1229.96 397.384C1324.12 343.024 1415.61 325.05 1434.86 357.024L1435.08 357.403L1472.14 421.585L1129.83 619.216L1092.78 555.033Z"/>
</mask>
<path d="M1092.78 555.033L1092.56 554.651C1074.5 521.989 1135.81 451.745 1229.96 397.384C1324.12 343.024 1415.61 325.05 1434.86 357.024L1435.08 357.403L1472.14 421.585L1129.83 619.216L1092.78 555.033Z" fill="url(#paint7_linear_1246_7546)"/>
<path d="M1092.78 555.033L1091.04 556.018L1091.04 556.026L1091.05 556.033L1092.78 555.033ZM1092.56 554.651L1090.81 555.619L1090.82 555.627L1090.82 555.635L1092.56 554.651ZM1229.96 397.384L1228.96 395.652V395.652L1229.96 397.384ZM1434.86 357.024L1436.58 356.009L1436.58 356.001L1436.57 355.993L1434.86 357.024ZM1435.08 357.403L1436.82 356.403L1436.81 356.395L1436.81 356.388L1435.08 357.403ZM1472.14 421.585L1473.14 423.317L1474.87 422.317L1473.87 420.585L1472.14 421.585ZM1129.83 619.216L1128.1 620.216L1129.1 621.948L1130.83 620.948L1129.83 619.216ZM1092.78 555.033L1094.52 554.049L1094.3 553.666L1092.56 554.651L1090.82 555.635L1091.04 556.018L1092.78 555.033ZM1092.56 554.651L1094.31 553.683C1090.2 546.252 1090.46 536.422 1095.03 524.668C1099.6 512.937 1108.35 499.594 1120.69 485.47C1145.35 457.237 1184.02 426.217 1230.96 399.116L1229.96 397.384L1228.96 395.652C1181.75 422.913 1142.69 454.195 1117.67 482.839C1105.17 497.154 1096.1 510.894 1091.31 523.218C1086.52 535.52 1085.89 546.719 1090.81 555.619L1092.56 554.651ZM1229.96 397.384L1230.96 399.116C1277.9 372.016 1324.11 354.03 1360.89 346.791C1379.29 343.17 1395.22 342.26 1407.66 344.174C1420.12 346.091 1428.77 350.781 1433.15 358.056L1434.86 357.024L1436.57 355.993C1431.33 347.28 1421.31 342.227 1408.27 340.22C1395.2 338.21 1378.76 339.196 1360.11 342.866C1322.8 350.211 1276.18 368.392 1228.96 395.652L1229.96 397.384ZM1434.86 357.024L1433.14 358.04L1433.36 358.418L1435.08 357.403L1436.81 356.388L1436.58 356.009L1434.86 357.024ZM1435.08 357.403L1433.35 358.403L1470.41 422.585L1472.14 421.585L1473.87 420.585L1436.82 356.403L1435.08 357.403ZM1472.14 421.585L1471.14 419.853L1128.83 617.484L1129.83 619.216L1130.83 620.948L1473.14 423.317L1472.14 421.585ZM1129.83 619.216L1131.57 618.216L1094.51 554.033L1092.78 555.033L1091.05 556.033L1128.1 620.216L1129.83 619.216Z" fill="#474747" mask="url(#path-22-inside-8_1246_7546)"/>
<path d="M1334.45 578.37C1287.26 605.617 1240.77 623.686 1203.79 630.895C1185.29 634.5 1169.23 635.378 1156.66 633.365C1144.09 631.351 1135.18 626.472 1130.7 618.717C1126.22 610.961 1126.45 600.806 1131 588.908C1135.53 577.02 1144.33 563.546 1156.7 549.329C1181.43 520.904 1220.32 489.681 1267.52 462.434C1314.71 435.187 1361.2 417.118 1398.18 409.909C1416.68 406.303 1432.74 405.426 1445.31 407.439C1457.88 409.453 1466.79 414.331 1471.27 422.086C1475.75 429.842 1475.52 439.998 1470.98 451.896C1466.44 463.785 1457.64 477.258 1445.27 491.474C1420.54 519.899 1381.65 551.123 1334.45 578.37Z" fill="black" stroke="#474747" stroke-width="2"/>
<mask id="path-25-inside-9_1246_7546" fill="white">
<path d="M938.761 428.143C906.268 409.383 924.169 317.547 978.743 223.022C1033.32 128.498 1103.9 67.078 1136.39 85.8372L1200.57 122.893L1002.94 465.199L938.761 428.143Z"/>
</mask>
<path d="M938.761 428.143C906.268 409.383 924.169 317.547 978.743 223.022C1033.32 128.498 1103.9 67.078 1136.39 85.8372L1200.57 122.893L1002.94 465.199L938.761 428.143Z" fill="url(#paint8_linear_1246_7546)"/>
<path d="M938.761 428.143L937.761 429.875L937.761 429.875L938.761 428.143ZM978.743 223.022L977.011 222.022V222.022L978.743 223.022ZM1136.39 85.8372L1137.39 84.1051L1137.39 84.1051L1136.39 85.8372ZM1200.57 122.893L1202.31 123.893L1203.31 122.161L1201.57 121.161L1200.57 122.893ZM1002.94 465.199L1001.94 466.931L1003.68 467.931L1004.68 466.199L1002.94 465.199ZM938.761 428.143L939.761 426.411C932.373 422.145 927.591 413.581 925.601 401.155C923.613 388.748 924.472 372.812 928.065 354.377C935.248 317.527 953.268 271.146 980.475 224.022L978.743 223.022L977.011 222.022C949.644 269.424 931.427 316.222 924.139 353.612C920.497 372.296 919.562 388.744 921.651 401.787C923.737 414.81 928.902 424.76 937.761 429.875L938.761 428.143ZM978.743 223.022L980.475 224.022C1007.68 176.899 1038.84 138.102 1067.16 113.457C1081.33 101.128 1094.7 92.4161 1106.44 87.9342C1118.2 83.4449 1128 83.304 1135.39 87.5692L1136.39 85.8372L1137.39 84.1051C1128.53 78.9908 1117.33 79.4926 1105.01 84.1974C1092.67 88.9095 1078.89 97.9433 1064.53 110.44C1035.8 135.446 1004.38 174.621 977.011 222.022L978.743 223.022ZM1136.39 85.8372L1135.39 87.5692L1199.57 124.625L1200.57 122.893L1201.57 121.161L1137.39 84.1051L1136.39 85.8372ZM1200.57 122.893L1198.84 121.893L1001.21 464.199L1002.94 465.199L1004.68 466.199L1202.31 123.893L1200.57 122.893ZM1002.94 465.199L1003.94 463.467L939.761 426.411L938.761 428.143L937.761 429.875L1001.94 466.931L1002.94 465.199Z" fill="#474747" mask="url(#path-25-inside-9_1246_7546)"/>
<path d="M1159.73 327.515C1132.48 374.708 1101.26 413.599 1072.83 438.334C1058.62 450.705 1045.14 459.498 1033.25 464.038C1021.36 468.581 1011.2 468.811 1003.44 464.334C995.689 459.856 990.812 450.946 988.797 438.37C986.784 425.805 987.662 409.74 991.267 391.242C998.476 354.258 1016.55 307.772 1043.79 260.579C1071.04 213.386 1102.26 174.495 1130.69 149.759C1144.9 137.388 1158.38 128.596 1170.27 124.056C1182.16 119.513 1192.32 119.282 1200.08 123.76C1207.83 128.238 1212.71 137.148 1214.72 149.724C1216.74 162.289 1215.86 178.354 1212.25 196.851C1205.04 233.836 1186.97 280.322 1159.73 327.515Z" fill="black" stroke="#474747" stroke-width="2"/>
<mask id="path-28-inside-10_1246_7546" fill="white">
<path d="M741.933 395.262L741.493 395.257C704.176 394.569 673.997 306.353 673.997 197.631C673.997 88.4826 704.413 2.88115e-06 741.933 1.91278e-06L816.044 0L816.044 395.262L741.933 395.262Z"/>
</mask>
<path d="M741.933 395.262L741.493 395.257C704.176 394.569 673.997 306.353 673.997 197.631C673.997 88.4826 704.413 2.88115e-06 741.933 1.91278e-06L816.044 0L816.044 395.262L741.933 395.262Z" fill="url(#paint9_linear_1246_7546)"/>
<path d="M741.933 395.262L741.91 397.262L741.922 397.262L741.933 397.262L741.933 395.262ZM741.493 395.257L741.456 397.256L741.464 397.257L741.471 397.257L741.493 395.257ZM673.997 197.631L671.997 197.631V197.631L673.997 197.631ZM741.933 1.91278e-06L741.933 -2L741.933 1.91278e-06ZM816.044 0L818.044 -5.16191e-08L818.044 -2L816.044 -2L816.044 0ZM816.044 395.262L816.044 397.262L818.044 397.262L818.044 395.262L816.044 395.262ZM741.933 395.262L741.955 393.262L741.515 393.257L741.493 395.257L741.471 397.257L741.91 397.262L741.933 395.262ZM741.493 395.257L741.53 393.257C733.04 393.101 724.656 387.961 716.763 378.125C708.885 368.307 701.707 354.055 695.644 336.31C683.523 300.838 675.997 251.832 675.997 197.631L673.997 197.631L671.997 197.631C671.997 252.152 679.561 301.615 691.859 337.603C698.004 355.588 705.368 370.315 713.644 380.628C721.905 390.924 731.288 397.069 741.456 397.256L741.493 395.257ZM673.997 197.631L675.997 197.631C675.997 143.217 683.582 94.0393 695.786 58.535C701.892 40.7732 709.117 26.5425 717.041 16.7922C724.978 7.02583 733.402 2 741.933 2L741.933 1.91278e-06L741.933 -2C731.704 -2 722.255 4.0345 713.937 14.2695C705.606 24.5205 698.192 39.2323 692.004 57.2347C679.62 93.2588 671.997 142.896 671.997 197.631L673.997 197.631ZM741.933 1.91278e-06L741.933 2L816.044 2L816.044 0L816.044 -2L741.933 -2L741.933 1.91278e-06ZM816.044 0L814.044 5.16192e-08L814.044 395.262L816.044 395.262L818.044 395.262L818.044 -5.16191e-08L816.044 0ZM816.044 395.262L816.044 393.262L741.933 393.262L741.933 395.262L741.933 397.262L816.044 397.262L816.044 395.262Z" fill="#474747" mask="url(#path-28-inside-10_1246_7546)"/>
<path d="M882.98 197.632C882.98 252.126 875.386 301.418 863.137 337.052C857.01 354.874 849.739 369.226 841.713 379.101C833.68 388.984 825 394.262 816.045 394.262C807.09 394.262 798.41 388.984 790.378 379.101C782.352 369.226 775.079 354.874 768.953 337.052C756.704 301.418 749.109 252.126 749.109 197.632C749.109 143.138 756.704 93.8454 768.953 58.2113C775.079 40.3894 782.352 26.038 790.378 16.1625C798.41 6.27931 807.09 1.00141 816.045 1.00137C825 1.00137 833.68 6.27902 841.713 16.1625C849.739 26.038 857.01 40.3894 863.137 58.2113C875.386 93.8454 882.98 143.138 882.98 197.632Z" fill="black" stroke="#474747" stroke-width="2"/>
<mask id="path-31-inside-11_1246_7546" fill="white">
<path d="M555.109 465.155C555.084 465.169 555.059 465.185 555.034 465.2C522.541 483.959 451.958 422.539 397.384 328.014C342.81 233.489 324.91 141.653 357.403 122.893L421.585 85.8372L619.215 428.143L555.109 465.155Z"/>
</mask>
<path d="M555.109 465.155C555.084 465.169 555.059 465.185 555.034 465.2C522.541 483.959 451.958 422.539 397.384 328.014C342.81 233.489 324.91 141.653 357.403 122.893L421.585 85.8372L619.215 428.143L555.109 465.155Z" fill="url(#paint10_linear_1246_7546)"/>
<path d="M555.109 465.155L554.109 463.423L554.103 463.426L555.109 465.155ZM555.034 465.2L556.034 466.932L556.034 466.932L555.034 465.2ZM397.384 328.014L395.652 329.014V329.014L397.384 328.014ZM421.585 85.8372L423.317 84.8372L422.317 83.1051L420.585 84.1051L421.585 85.8372ZM619.215 428.143L620.215 429.875L621.947 428.875L620.947 427.143L619.215 428.143ZM555.109 465.155L554.103 463.426C554.077 463.441 554.053 463.456 554.044 463.461C554.031 463.469 554.031 463.469 554.034 463.467L555.034 465.2L556.034 466.932C556.062 466.915 556.087 466.9 556.099 466.893C556.106 466.889 556.109 466.887 556.113 466.885C556.116 466.883 556.117 466.882 556.116 466.883L555.109 465.155ZM555.034 465.2L554.034 463.467C546.646 467.733 536.838 467.592 525.081 463.103C513.343 458.621 499.971 449.909 485.802 437.58C457.481 412.935 426.323 374.138 399.116 327.014L397.384 328.014L395.652 329.014C423.019 376.415 454.44 415.591 483.176 440.597C497.537 453.094 511.313 462.128 523.654 466.84C535.975 471.544 547.175 472.046 556.034 466.932L555.034 465.2ZM397.384 328.014L399.116 327.014C371.909 279.89 353.889 233.509 346.706 196.659C343.113 178.224 342.255 162.287 344.242 149.881C346.233 137.454 351.015 128.89 358.403 124.625L357.403 122.893L356.403 121.161C347.544 126.275 342.379 136.226 340.292 149.248C338.203 162.292 339.138 178.739 342.78 197.424C350.068 234.813 368.285 281.612 395.652 329.014L397.384 328.014ZM357.403 122.893L358.403 124.625L422.585 87.5692L421.585 85.8372L420.585 84.1051L356.403 121.161L357.403 122.893ZM421.585 85.8372L419.853 86.8372L617.483 429.143L619.215 428.143L620.947 427.143L423.317 84.8372L421.585 85.8372ZM619.215 428.143L618.215 426.411L554.109 463.423L555.109 465.155L556.109 466.887L620.215 429.875L619.215 428.143Z" fill="#474747" mask="url(#path-31-inside-11_1246_7546)"/>
<path d="M578.37 223.524C605.617 270.717 623.686 317.202 630.895 354.187C634.501 372.684 635.379 388.749 633.366 401.314C631.351 413.89 626.473 422.8 618.717 427.278C610.962 431.756 600.806 431.524 588.909 426.981C577.02 422.442 563.546 413.65 549.33 401.279C520.905 376.543 489.681 337.652 462.435 290.459C435.188 243.266 417.118 196.78 409.909 159.795C406.304 141.298 405.426 125.233 407.439 112.668C409.454 100.092 414.332 91.1818 422.087 86.7042C429.843 82.2265 439.999 82.457 451.897 87.0001C463.785 91.5395 477.258 100.332 491.475 112.704C519.9 137.439 551.123 176.331 578.37 223.524Z" fill="black" stroke="#474747" stroke-width="2"/>
<mask id="path-34-inside-12_1246_7546" fill="white">
<path d="M428.188 619.14C428.173 619.166 428.159 619.191 428.145 619.217C409.385 651.71 317.549 633.809 223.023 579.235C128.498 524.661 67.078 454.079 85.8379 421.586L122.894 357.404L465.199 555.034L428.188 619.14Z"/>
</mask>
<path d="M428.188 619.14C428.173 619.166 428.159 619.191 428.145 619.217C409.385 651.71 317.549 633.809 223.023 579.235C128.498 524.661 67.078 454.079 85.8379 421.586L122.894 357.404L465.199 555.034L428.188 619.14Z" fill="url(#paint11_linear_1246_7546)"/>
<path d="M428.188 619.14L426.456 618.14L426.452 618.147L428.188 619.14ZM428.145 619.217L429.877 620.217L429.877 620.217L428.145 619.217ZM223.023 579.235L222.023 580.967V580.967L223.023 579.235ZM122.894 357.404L123.894 355.672L122.162 354.672L121.162 356.404L122.894 357.404ZM465.199 555.034L466.931 556.034L467.931 554.302L466.199 553.302L465.199 555.034ZM428.188 619.14L426.452 618.147C426.437 618.172 426.424 618.197 426.419 618.206C426.411 618.219 426.411 618.219 426.412 618.217L428.145 619.217L429.877 620.217C429.893 620.189 429.907 620.163 429.914 620.151C429.918 620.144 429.92 620.14 429.922 620.136C429.924 620.133 429.924 620.133 429.923 620.134L428.188 619.14ZM428.145 619.217L426.413 618.217C422.147 625.605 413.583 630.387 401.156 632.377C388.75 634.365 372.814 633.506 354.379 629.913C317.529 622.731 271.147 604.71 224.023 577.503L223.023 579.235L222.023 580.967C269.425 608.335 316.224 626.551 353.613 633.839C372.298 637.481 388.746 638.416 401.789 636.327C414.812 634.241 424.762 629.075 429.877 620.217L428.145 619.217ZM223.023 579.235L224.023 577.503C176.9 550.296 138.103 519.139 113.458 490.817C101.128 476.649 92.4166 463.276 87.9347 451.539C83.4453 439.782 83.3045 429.974 87.5699 422.586L85.8379 421.586L84.1058 420.586C78.9913 429.445 79.4931 440.644 84.1978 452.966C88.9099 465.306 97.9437 479.083 110.44 493.443C135.446 522.179 174.622 553.6 222.023 580.967L223.023 579.235ZM85.8379 421.586L87.5699 422.586L124.626 358.404L122.894 357.404L121.162 356.404L84.1058 420.586L85.8379 421.586ZM122.894 357.404L121.894 359.136L464.199 556.766L465.199 555.034L466.199 553.302L123.894 355.672L122.894 357.404ZM465.199 555.034L463.467 554.034L426.456 618.14L428.188 619.14L429.92 620.14L466.931 556.034L465.199 555.034Z" fill="#474747" mask="url(#path-34-inside-12_1246_7546)"/>
<path d="M327.516 398.251C374.708 425.498 413.6 456.722 438.335 485.147C450.706 499.363 459.499 512.836 464.038 524.725C468.582 536.623 468.812 546.779 464.334 554.534C459.857 562.29 450.946 567.167 438.371 569.182C425.806 571.195 409.741 570.317 391.243 566.712C354.259 559.503 307.773 541.434 260.58 514.187C213.387 486.94 174.495 455.717 149.76 427.292C137.389 413.075 128.596 399.601 124.057 387.713C119.514 375.815 119.283 365.659 123.761 357.904C128.238 350.148 137.149 345.27 149.724 343.255C162.29 341.242 178.354 342.121 196.852 345.726C233.836 352.935 280.323 371.005 327.516 398.251Z" fill="black" stroke="#474747" stroke-width="2"/>
<defs>
<linearGradient id="paint0_linear_1246_7546" x1="395.261" y1="812.957" x2="0" y2="812.957" gradientUnits="userSpaceOnUse">
<stop stop-color="#7B5AFF"/>
<stop offset="1" stop-color="#FF4874"/>
</linearGradient>
<linearGradient id="paint1_linear_1246_7546" x1="463.654" y1="1000.27" x2="121.349" y2="1197.9" gradientUnits="userSpaceOnUse">
<stop stop-color="#7B5AFF"/>
<stop offset="1" stop-color="#FF4874"/>
</linearGradient>
<linearGradient id="paint2_linear_1246_7546" x1="616.542" y1="1128.29" x2="418.911" y2="1470.6" gradientUnits="userSpaceOnUse">
<stop stop-color="#7B5AFF"/>
<stop offset="1" stop-color="#FF4874"/>
</linearGradient>
<linearGradient id="paint3_linear_1246_7546" x1="812.957" y1="1162.72" x2="812.957" y2="1557.98" gradientUnits="userSpaceOnUse">
<stop stop-color="#7B5AFF"/>
<stop offset="1" stop-color="#FF4874"/>
</linearGradient>
<linearGradient id="paint4_linear_1246_7546" x1="1000.27" y1="1094.32" x2="1197.9" y2="1436.63" gradientUnits="userSpaceOnUse">
<stop stop-color="#7B5AFF"/>
<stop offset="1" stop-color="#FF4874"/>
</linearGradient>
<linearGradient id="paint5_linear_1246_7546" x1="1128.29" y1="941.435" x2="1470.6" y2="1139.07" gradientUnits="userSpaceOnUse">
<stop stop-color="#7B5AFF"/>
<stop offset="1" stop-color="#FF4874"/>
</linearGradient>
<linearGradient id="paint6_linear_1246_7546" x1="1162.72" y1="745.021" x2="1557.98" y2="745.021" gradientUnits="userSpaceOnUse">
<stop stop-color="#7B5AFF"/>
<stop offset="1" stop-color="#FF4874"/>
</linearGradient>
<linearGradient id="paint7_linear_1246_7546" x1="1094.32" y1="557.707" x2="1436.63" y2="360.077" gradientUnits="userSpaceOnUse">
<stop stop-color="#7B5AFF"/>
<stop offset="1" stop-color="#FF4874"/>
</linearGradient>
<linearGradient id="paint8_linear_1246_7546" x1="941.436" y1="429.687" x2="1139.07" y2="87.3816" gradientUnits="userSpaceOnUse">
<stop stop-color="#7B5AFF"/>
<stop offset="1" stop-color="#FF4874"/>
</linearGradient>
<linearGradient id="paint9_linear_1246_7546" x1="745.021" y1="395.262" x2="745.021" y2="1.83308e-06" gradientUnits="userSpaceOnUse">
<stop stop-color="#7B5AFF"/>
<stop offset="1" stop-color="#FF4874"/>
</linearGradient>
<linearGradient id="paint10_linear_1246_7546" x1="557.708" y1="463.656" x2="360.077" y2="121.349" gradientUnits="userSpaceOnUse">
<stop stop-color="#7B5AFF"/>
<stop offset="1" stop-color="#FF4874"/>
</linearGradient>
<linearGradient id="paint11_linear_1246_7546" x1="429.689" y1="616.543" x2="87.3818" y2="418.912" gradientUnits="userSpaceOnUse">
<stop stop-color="#7B5AFF"/>
<stop offset="1" stop-color="#FF4874"/>
</linearGradient>
</defs>
</svg>
